<?xml version="1.0" standalone="no"?><!DOCTYPE svg PUBLIC "-//W3C//DTD SVG 1.1//EN" "http://www.w3.org/Graphics/SVG/1.1/DTD/svg11.dtd"><svg class="icon" width="200px" height="200.00px" viewBox="0 0 1024 1024" version="1.1" xmlns="http://www.w3.org/2000/svg"><path d="M78 0h868c43.078 0 78 34.922 78 78v868c0 43.078-34.922 78-78 78H78c-43.078 0-78-34.922-78-78V78C0 34.922 34.922 0 78 0z" fill="#F7F8FA" /><path d="M531.23 460.542V585.2h206.02c-8.377 53.525-62.294 156.759-206.02 156.759-124.021 0-225.18-102.802-225.18-229.459s101.16-229.459 225.18-229.459c70.512 0 117.777 30.103 144.725 56.093l98.617-94.987C711.279 184.805 629.28 149 531.23 149 330.455 149 168 311.575 168 512.5S330.455 876 531.23 876C740.792 876 880 728.465 880 520.883c0-23.854-2.565-42.029-5.676-60.204l-343.094-0.137z" fill="#2CA94F" /><path d="M779.544 780.98C843.424 717.913 880 627.287 880 520.883c0-23.854-2.565-42.029-5.676-60.204l-343.094-0.137V585.2h206.02c-4.875 31.154-25.179 79.148-69.64 113.825l111.934 81.955z" fill="#3E82F7" /><path d="M211.013 684.371C183.565 633.211 168 574.692 168 512.5c0-54.002 11.735-105.234 32.795-151.284l115.638 82.33c-6.744 21.768-10.383 44.932-10.383 68.954 0 31.371 6.205 61.279 17.428 88.523l-112.465 83.348z" fill="#FCBD00" /><path d="M200.398 362.087C257.508 236.333 384.077 149 531.23 149c98.05 0 180.049 35.805 243.342 95.146l-98.617 94.987c-26.947-25.99-74.213-56.093-144.725-56.093-102.636 0-189.615 70.407-216.559 166.474l-114.273-87.427z" fill="#ED422C" /></svg>