<?xml version="1.0" encoding="utf-8"?>
<!-- Generator: Adobe Illustrator 17.0.0, SVG Export Plug-In . SVG Version: 6.00 Build 0)  -->
<!DOCTYPE svg PUBLIC "-//W3C//DTD SVG 1.1//EN" "http://www.w3.org/Graphics/SVG/1.1/DTD/svg11.dtd">
<svg version="1.1" id="图层_1" xmlns="http://www.w3.org/2000/svg" xmlns:xlink="http://www.w3.org/1999/xlink" x="0px" y="0px"
	 width="595.28px" height="595.28px" viewBox="0 0 595.28 595.28" enable-background="new 0 0 595.28 595.28" xml:space="preserve">
<g>
	<path fill="#2CA94F" d="M302.25,264.347v79.493h131.377c-5.342,34.132-39.724,99.963-131.377,99.963
		c-79.087,0-143.595-65.555-143.595-146.323s64.509-146.323,143.595-146.323c44.965,0,75.105,19.196,92.29,35.77l62.887-60.572
		C417.066,88.512,364.776,65.68,302.25,65.68c-128.032,0-231.628,103.672-231.628,231.8s103.596,231.8,231.628,231.8
		c133.636,0,222.407-94.081,222.407-226.455c0-15.211-1.636-26.801-3.62-38.391L302.25,264.347L302.25,264.347z"/>
	<path fill="#3D82F7" d="M460.597,468.687c40.736-40.217,64.06-98.008,64.06-165.861c0-15.211-1.636-26.801-3.62-38.391
		l-218.787-0.087v79.493h131.377c-3.109,19.866-16.056,50.471-44.409,72.585L460.597,468.687L460.597,468.687z"/>
	<path fill="#FBBC00" d="M98.051,407.08c-17.503-32.624-27.429-69.941-27.429-109.6c0-34.437,7.483-67.106,20.913-96.472
		l73.741,52.501c-4.3,13.881-6.621,28.652-6.621,43.971c0,20.005,3.957,39.077,11.113,56.45L98.051,407.08L98.051,407.08z"/>
	<path fill="#EC422C" d="M91.282,201.564C127.701,121.371,208.413,65.68,302.25,65.68c62.525,0,114.815,22.832,155.177,60.674
		l-62.887,60.572c-17.184-16.574-47.324-35.77-92.29-35.77c-65.45,0-120.915,44.898-138.097,106.159L91.282,201.564L91.282,201.564z
		"/>
</g>
</svg>
